<?xml version="1.0" standalone="no"?>
<!DOCTYPE svg PUBLIC "-//W3C//DTD SVG 20010904//EN"
 "http://www.w3.org/TR/2001/REC-SVG-20010904/DTD/svg10.dtd">
<svg version="1.0" xmlns="http://www.w3.org/2000/svg"
 width="512.000000pt" height="512.000000pt" viewBox="0 0 512.000000 512.000000"
 preserveAspectRatio="xMidYMid meet">

<g transform="translate(0.000000,512.000000) scale(0.100000,-0.100000)"
fill="#000000" stroke="none">
<path d="M3355 4681 c-124 -56 -232 -286 -205 -434 35 -184 236 -285 404 -203
165 81 208 273 104 468 -84 157 -194 219 -303 169z"/>
<path d="M4220 4546 c-100 -27 -217 -132 -271 -242 -56 -114 -41 -234 40 -327
79 -90 224 -117 335 -63 107 52 157 139 164 281 11 243 -105 396 -268 351z"/>
<path d="M2725 4151 c-85 -35 -153 -193 -143 -332 18 -247 324 -325 453 -115
26 43 30 59 30 120 0 57 -5 82 -28 127 -72 148 -215 239 -312 200z"/>
<path d="M4618 3816 c-57 -21 -134 -74 -178 -123 -117 -133 -78 -320 80 -392
92 -42 189 -22 265 54 67 66 90 134 90 260 -1 105 -24 162 -78 195 -38 23
-122 26 -179 6z"/>
<path d="M3480 3701 c-153 -49 -237 -131 -270 -263 -15 -59 -40 -81 -115 -103
-130 -37 -220 -107 -272 -213 -25 -50 -28 -68 -28 -152 0 -82 4 -103 27 -152
97 -207 337 -299 568 -218 130 46 189 38 275 -38 187 -164 462 -160 621 10 71
76 99 145 99 248 0 72 -5 94 -28 144 -37 79 -86 138 -157 186 -31 21 -61 47
-65 57 -4 10 -8 59 -9 108 -2 76 -7 99 -31 148 -54 109 -182 205 -322 241 -82
21 -223 20 -293 -3z"/>
<path d="M1591 2654 c-82 -41 -161 -155 -191 -277 -16 -63 -9 -173 15 -222
102 -210 404 -212 511 -3 33 65 40 139 20 218 -44 173 -163 309 -272 310 -16
0 -54 -12 -83 -26z"/>
<path d="M789 2530 c-55 -10 -95 -45 -128 -113 -90 -184 -56 -409 76 -499 56
-40 91 -50 163 -51 112 -1 204 55 258 158 22 41 27 63 27 125 0 63 -5 84 -30
135 -35 69 -129 170 -196 208 -53 31 -119 45 -170 37z"/>
<path d="M2242 2120 c-89 -40 -192 -181 -207 -285 -23 -147 116 -289 266 -272
94 11 182 82 207 166 18 58 14 161 -8 232 -46 152 -143 211 -258 159z"/>
<path d="M303 1790 c-86 -57 -105 -235 -42 -380 52 -118 175 -174 304 -139 53
14 136 99 153 155 40 134 -34 271 -189 350 -75 38 -180 44 -226 14z"/>
<path d="M1330 1684 c-144 -38 -267 -130 -321 -239 -28 -57 -31 -74 -31 -146
0 -45 -4 -93 -8 -105 -5 -13 -40 -46 -78 -73 -118 -86 -174 -190 -175 -321 0
-98 28 -172 93 -243 160 -175 435 -182 626 -16 91 78 143 86 274 39 181 -63
361 -26 489 101 26 27 61 74 77 106 26 53 29 67 29 158 0 88 -3 107 -27 157
-49 104 -158 188 -286 218 -56 13 -88 42 -98 89 -29 138 -129 234 -289 277
-65 18 -205 17 -275 -2z"/>
</g>
</svg>
